<?xml version="1.0" encoding="utf-8" ?>
<svg baseProfile="full" height="95" version="1.1" width="340" xmlns="http://www.w3.org/2000/svg" xmlns:ev="http://www.w3.org/2001/xml-events" xmlns:xlink="http://www.w3.org/1999/xlink"><defs /><line stroke="rgb(200, 0, 200)" stroke-width="2" x1="100.0" x2="30.0" y1="45.0" y2="45.0" /><circle cx="100.0" cy="45.0" fill="rgb(200, 0, 200)" r="1" stroke="none" /><circle cx="30.0" cy="45.0" fill="rgb(200, 0, 200)" r="1" stroke="none" /><line stroke="rgb(200, 0, 200)" stroke-width="2" x1="30.0" x2="30.0" y1="45.0" y2="65.0" /><circle cx="30.0" cy="45.0" fill="rgb(200, 0, 200)" r="1" stroke="none" /><circle cx="30.0" cy="65.0" fill="rgb(200, 0, 200)" r="1" stroke="none" /><line stroke="rgb(200, 0, 200)" stroke-width="2" x1="30.0" x2="300.0" y1="65.0" y2="65.0" /><circle cx="30.0" cy="65.0" fill="rgb(200, 0, 200)" r="1" stroke="none" /><circle cx="300.0" cy="65.0" fill="rgb(200, 0, 200)" r="1" stroke="none" /><line stroke="rgb(200, 0, 200)" stroke-width="2" x1="300.0" x2="310.0" y1="65.0" y2="55.0" /><circle cx="300.0" cy="65.0" fill="rgb(200, 0, 200)" r="1" stroke="none" /><circle cx="310.0" cy="55.0" fill="rgb(200, 0, 200)" r="1" stroke="none" /><line stroke="rgb(200, 0, 200)" stroke-width="2" x1="310.0" x2="310.0" y1="55.0" y2="30.0" /><circle cx="310.0" cy="55.0" fill="rgb(200, 0, 200)" r="1" stroke="none" /><circle cx="310.0" cy="30.0" fill="rgb(200, 0, 200)" r="1" stroke="none" /><circle cx="100.0" cy="45.0" fill="yellow" r="2" stroke="black" stroke-width="0.8" /><circle cx="82.5" cy="45.0" fill="yellow" r="2" stroke="black" stroke-width="0.8" /><circle cx="65.0" cy="45.0" fill="yellow" r="2" stroke="black" stroke-width="0.8" /><circle cx="47.5" cy="45.0" fill="yellow" r="2" stroke="black" stroke-width="0.8" /><circle cx="43.5" cy="65.0" fill="yellow" r="2" stroke="black" stroke-width="0.8" /><circle cx="48.900000000000006" cy="65.0" fill="yellow" r="2" stroke="black" stroke-width="0.8" /><circle cx="73.2" cy="65.0" fill="yellow" r="2" stroke="black" stroke-width="0.8" /><circle cx="97.5" cy="65.0" fill="yellow" r="2" stroke="black" stroke-width="0.8" /><circle cx="121.80000000000001" cy="65.0" fill="yellow" r="2" stroke="black" stroke-width="0.8" /><circle cx="146.1" cy="65.0" fill="yellow" r="2" stroke="black" stroke-width="0.8" /><circle cx="170.4" cy="65.0" fill="yellow" r="2" stroke="black" stroke-width="0.8" /><circle cx="194.7" cy="65.0" fill="yellow" r="2" stroke="black" stroke-width="0.8" /><circle cx="219.0" cy="65.0" fill="yellow" r="2" stroke="black" stroke-width="0.8" /><circle cx="227.1" cy="65.0" fill="yellow" r="2" stroke="black" stroke-width="0.8" /><circle cx="248.70000000000002" cy="65.0" fill="yellow" r="2" stroke="black" stroke-width="0.8" /><circle cx="264.9" cy="65.0" fill="yellow" r="2" stroke="black" stroke-width="0.8" /><circle cx="289.2" cy="65.0" fill="yellow" r="2" stroke="black" stroke-width="0.8" /><circle cx="310.0" cy="50.0" fill="yellow" r="2" stroke="black" stroke-width="0.8" /><circle cx="310.0" cy="35.0" fill="yellow" r="2" stroke="black" stroke-width="0.8" /></svg>